<svg viewBox="0 0 3508 599" version="1.1" xmlns="http://www.w3.org/2000/svg" xmlns:xlink="http://www.w3.org/1999/xlink">
    <title>Elements Development Logo</title>
    <desc>5 circles depecticting the five elments of earth, water, fire, mineral, and nature.</desc>
    <path d="M855.08,208.44 L735.48,208.44 L735.48,392 L857.16,392 L858.72,365.22 L773.44,364.18 L773.44,309.32 L849.1,309.32 L849.1,281.76 L773.44,281.76 L773.44,236.26 L851.96,236.26 L855.08,208.44 Z M914.36,201.94 L878.48,204.28 L878.48,334.28 C878.48,368.86 884.98,393.56 925.8,393.56 C937.5,393.56 944.52,392 944.52,392 L942.96,366.26 C942.96,366.26 941.92,366.78 935.42,366.78 C916.18,366.78 914.36,359.76 914.36,339.22 L914.36,201.94 Z M990.28,312.44 C992.1,285.4 1009.52,278.38 1021.22,278.38 C1038.38,278.38 1048,289.3 1048,311.14 L1048,312.44 L990.28,312.44 Z M1080.5,331.68 L1080.5,331.16 C1080.5,327.78 1080.76,324.4 1080.76,321.02 L1080.76,320.5 C1080.76,284.36 1061.78,251.86 1020.7,251.86 C978.84,251.86 954.66,283.58 954.66,323.36 C954.66,366.78 979.88,394.6 1026.68,394.6 C1049.56,394.6 1064.9,387.84 1076.6,378.74 L1066.72,356.64 C1058.66,362.62 1044.62,368.6 1027.98,368.6 C1004.58,368.6 990.8,356.38 990.02,331.68 L1080.5,331.68 Z M1136.14,299.7 C1141.6,290.34 1151.22,278.38 1166.82,278.38 C1184.76,278.38 1187.1,293.98 1187.1,314.52 L1187.1,392 L1222.98,392 L1222.98,299.96 C1228.7,289.56 1237.28,278.9 1254.18,278.38 L1254.96,278.38 C1270.82,278.38 1272.9,290.6 1272.9,316.86 L1272.9,392 L1308.78,392 L1308.78,309.32 C1308.78,276.82 1297.6,251.86 1264.32,251.86 L1262.76,251.86 C1242.74,251.86 1227.66,260.7 1215.7,274.74 C1210.24,260.96 1199.06,251.86 1180.86,251.86 L1179.3,251.86 C1159.54,252.38 1143.16,262.78 1133.54,275 L1130.68,257.06 L1100.26,257.06 L1100.26,392 L1136.14,392 L1136.14,299.7 Z M1363.9,312.44 C1365.72,285.4 1383.14,278.38 1394.84,278.38 C1412,278.38 1421.62,289.3 1421.62,311.14 L1421.62,312.44 L1363.9,312.44 Z M1454.12,331.68 L1454.12,331.16 C1454.12,327.78 1454.38,324.4 1454.38,321.02 L1454.38,320.5 C1454.38,284.36 1435.4,251.86 1394.32,251.86 C1352.46,251.86 1328.28,283.58 1328.28,323.36 C1328.28,366.78 1353.5,394.6 1400.3,394.6 C1423.18,394.6 1438.52,387.84 1450.22,378.74 L1440.34,356.64 C1432.28,362.62 1418.24,368.6 1401.6,368.6 C1378.2,368.6 1364.42,356.38 1363.64,331.68 L1454.12,331.68 Z M1565.14,313.22 L1565.14,392 L1601.28,392 L1601.28,309.84 C1601.28,276.56 1587.24,252.38 1554.48,251.86 C1534.2,251.6 1517.3,262.52 1506.64,275 L1503.78,257.06 L1473.62,257.06 L1473.62,392 L1509.76,392 L1509.76,299.96 C1515.48,289.04 1529.52,278.38 1542.78,278.38 C1564.1,278.38 1565.14,294.5 1565.14,313.22 L1565.14,313.22 Z M1668.36,278.64 L1701.64,278.64 L1701.64,257.06 L1668.36,257.06 L1668.36,207.92 L1641.32,207.92 L1632.48,257.06 L1611.16,257.06 L1609.08,278.64 L1632.48,278.64 L1632.48,334.02 C1632.48,373.54 1640.8,393.56 1682.66,393.56 C1689.68,393.56 1702.94,392 1702.94,392 L1700.86,365.48 C1700.86,365.48 1690.2,366.26 1689.42,366.26 C1669.66,366.26 1668.36,358.98 1668.36,336.1 L1668.36,278.64 Z M1814.74,262.78 C1803.82,255.24 1788.48,251.86 1769.24,251.86 C1740.12,251.86 1719.32,265.12 1719.32,293.2 C1719.32,315.56 1734.92,325.44 1754.42,332.72 L1774.7,340.26 C1785.1,344.16 1787.96,347.02 1787.96,354.82 C1787.96,364.7 1779.9,368.6 1769.76,368.6 C1756.5,368.6 1735.7,364.7 1724.52,357.42 L1717.5,380.82 C1730.76,390.18 1748.96,394.34 1774.18,394.34 C1805.9,394.34 1820.72,373.8 1820.72,350.92 C1820.72,330.12 1803.82,317.9 1787.18,312.18 L1766.38,304.9 C1754.68,300.74 1750.52,298.4 1751.04,289.04 C1751.56,281.5 1757.54,277.86 1772.1,277.86 C1782.24,277.86 1799.4,281.24 1808.5,286.18 L1814.74,262.78 Z M2063.3,300.74 C2063.3,233.4 2016.5,208.44 1947.6,208.44 L1897.94,208.44 L1897.94,392 L1959.04,392 C2020.66,392 2063.3,360.54 2063.3,300.74 L2063.3,300.74 Z M2025.6,301.26 C2025.6,341.56 2002.72,363.66 1961.38,363.66 L1935.9,363.66 L1935.9,237.04 L1950.46,237.04 C2000.64,237.04 2025.6,252.9 2025.6,301.26 L2025.6,301.26 Z M2116.08,312.44 C2117.9,285.4 2135.32,278.38 2147.02,278.38 C2164.18,278.38 2173.8,289.3 2173.8,311.14 L2173.8,312.44 L2116.08,312.44 Z M2206.3,331.68 L2206.3,331.16 C2206.3,327.78 2206.56,324.4 2206.56,321.02 L2206.56,320.5 C2206.56,284.36 2187.58,251.86 2146.5,251.86 C2104.64,251.86 2080.46,283.58 2080.46,323.36 C2080.46,366.78 2105.68,394.6 2152.48,394.6 C2175.36,394.6 2190.7,387.84 2202.4,378.74 L2192.52,356.64 C2184.46,362.62 2170.42,368.6 2153.78,368.6 C2130.38,368.6 2116.6,356.38 2115.82,331.68 L2206.3,331.68 Z M2287.16,354.3 L2251.02,257.06 L2213.32,257.06 L2270,392 L2303.54,392 L2353.2,257.06 L2316.02,257.06 L2287.16,354.3 Z M2397.14,312.44 C2398.96,285.4 2416.38,278.38 2428.08,278.38 C2445.24,278.38 2454.86,289.3 2454.86,311.14 L2454.86,312.44 L2397.14,312.44 Z M2487.36,331.68 L2487.36,331.16 C2487.36,327.78 2487.62,324.4 2487.62,321.02 L2487.62,320.5 C2487.62,284.36 2468.64,251.86 2427.56,251.86 C2385.7,251.86 2361.52,283.58 2361.52,323.36 C2361.52,366.78 2386.74,394.6 2433.54,394.6 C2456.42,394.6 2471.76,387.84 2483.46,378.74 L2473.58,356.64 C2465.52,362.62 2451.48,368.6 2434.84,368.6 C2411.44,368.6 2397.66,356.38 2396.88,331.68 L2487.36,331.68 Z M2545.08,201.94 L2509.2,204.28 L2509.2,334.28 C2509.2,368.86 2515.7,393.56 2556.52,393.56 C2568.22,393.56 2575.24,392 2575.24,392 L2573.68,366.26 C2573.68,366.26 2572.64,366.78 2566.14,366.78 C2546.9,366.78 2545.08,359.76 2545.08,339.22 L2545.08,201.94 Z M2651.94,251.86 C2608,251.86 2585.38,281.76 2585.38,323.62 C2585.38,364.7 2608,394.6 2651.94,394.6 C2695.88,394.6 2718.5,364.7 2718.5,323.62 C2718.5,281.76 2695.88,251.86 2651.94,251.86 L2651.94,251.86 Z M2651.94,368.34 C2632.7,368.34 2619.96,353 2619.96,323.62 C2619.96,293.46 2632.96,278.38 2651.94,278.38 C2670.92,278.38 2684.18,293.46 2684.18,323.62 C2684.18,353 2671.18,368.34 2651.94,368.34 L2651.94,368.34 Z M2772.32,257.06 L2739.82,257.06 L2739.82,444 L2775.7,440.36 L2775.7,375.36 C2784.02,388.62 2796.76,394.6 2815.48,394.6 L2816.26,394.6 C2855.52,394.34 2876.32,361.06 2876.32,322.58 C2876.32,287.48 2856.3,251.86 2814.96,251.86 C2797.02,251.86 2782.98,257.84 2774.92,275 L2772.32,257.06 Z M2809.5,368.08 C2792.34,368.08 2775.44,358.46 2775.44,323.62 C2775.44,289.3 2792.34,278.38 2808.46,278.38 C2824.32,278.38 2841.74,287.48 2841.74,323.62 C2841.74,357.16 2825.62,368.08 2809.5,368.08 L2809.5,368.08 Z M2933.26,299.7 C2938.72,290.34 2948.34,278.38 2963.94,278.38 C2981.88,278.38 2984.22,293.98 2984.22,314.52 L2984.22,392 L3020.1,392 L3020.1,299.96 C3025.82,289.56 3034.4,278.9 3051.3,278.38 L3052.08,278.38 C3067.94,278.38 3070.02,290.6 3070.02,316.86 L3070.02,392 L3105.9,392 L3105.9,309.32 C3105.9,276.82 3094.72,251.86 3061.44,251.86 L3059.88,251.86 C3039.86,251.86 3024.78,260.7 3012.82,274.74 C3007.36,260.96 2996.18,251.86 2977.98,251.86 L2976.42,251.86 C2956.66,252.38 2940.28,262.78 2930.66,275 L2927.8,257.06 L2897.38,257.06 L2897.38,392 L2933.26,392 L2933.26,299.7 Z M3161.02,312.44 C3162.84,285.4 3180.26,278.38 3191.96,278.38 C3209.12,278.38 3218.74,289.3 3218.74,311.14 L3218.74,312.44 L3161.02,312.44 Z M3251.24,331.68 L3251.24,331.16 C3251.24,327.78 3251.5,324.4 3251.5,321.02 L3251.5,320.5 C3251.5,284.36 3232.52,251.86 3191.44,251.86 C3149.58,251.86 3125.4,283.58 3125.4,323.36 C3125.4,366.78 3150.62,394.6 3197.42,394.6 C3220.3,394.6 3235.64,387.84 3247.34,378.74 L3237.46,356.64 C3229.4,362.62 3215.36,368.6 3198.72,368.6 C3175.32,368.6 3161.54,356.38 3160.76,331.68 L3251.24,331.68 Z M3362.26,313.22 L3362.26,392 L3398.4,392 L3398.4,309.84 C3398.4,276.56 3384.36,252.38 3351.6,251.86 C3331.32,251.6 3314.42,262.52 3303.76,275 L3300.9,257.06 L3270.74,257.06 L3270.74,392 L3306.88,392 L3306.88,299.96 C3312.6,289.04 3326.64,278.38 3339.9,278.38 C3361.22,278.38 3362.26,294.5 3362.26,313.22 L3362.26,313.22 Z M3465.48,278.64 L3498.76,278.64 L3498.76,257.06 L3465.48,257.06 L3465.48,207.92 L3438.44,207.92 L3429.6,257.06 L3408.28,257.06 L3406.2,278.64 L3429.6,278.64 L3429.6,334.02 C3429.6,373.54 3437.92,393.56 3479.78,393.56 C3486.8,393.56 3500.06,392 3500.06,392 L3497.98,365.48 C3497.98,365.48 3487.32,366.26 3486.54,366.26 C3466.78,366.26 3465.48,358.98 3465.48,336.1 L3465.48,278.64 Z" id="Elements-Development"></path>
    <ellipse id="Earth" cx="298.889168" cy="299.513168" rx="85.3884533" ry="85.3097415"></ellipse>
    <ellipse id="Fire" cx="299.744882" cy="513.289042" rx="85.3884533" ry="85.3097415"></ellipse>
    <ellipse id="Nature" cx="513.245596" cy="299.513168" rx="85.3884533" ry="85.3097415"></ellipse>
    <ellipse id="Water" cx="299.317025" cy="85.3097415" rx="85.3884533" ry="85.3097415"></ellipse>
    <ellipse id="Mineral" cx="85.3884533" cy="299.940719" rx="85.3884533" ry="85.3097415"></ellipse>
</svg>
